<svg width="24" height="24" viewBox="0 0 24 24" fill="none" xmlns="http://www.w3.org/2000/svg">
<path d="M14.0315 18.3641L12.6431 20.6781C12.5765 20.7891 12.4822 20.8811 12.3695 20.9449C12.2568 21.0087 12.1295 21.0422 12 21.0422C11.8705 21.0422 11.7432 21.0087 11.6305 20.9449C11.5178 20.8811 11.4235 20.7891 11.3569 20.6781L9.96848 18.3641C9.90184 18.253 9.80758 18.1611 9.69488 18.0973C9.58218 18.0335 9.45487 18 9.32536 18H3.75C3.55109 18 3.36032 17.9209 3.21967 17.7803C3.07902 17.6396 3 17.4489 3 17.25V5.25C3 5.05109 3.07902 4.86032 3.21967 4.71967C3.36032 4.57902 3.55109 4.5 3.75 4.5H20.25C20.4489 4.5 20.6397 4.57902 20.7803 4.71967C20.921 4.86032 21 5.05109 21 5.25V17.25C21 17.3485 20.9806 17.446 20.9429 17.537C20.9052 17.628 20.85 17.7107 20.7803 17.7803C20.7107 17.85 20.628 17.9052 20.537 17.9429C20.446 17.9806 20.3485 18 20.25 18L14.6746 18C14.5451 18 14.4178 18.0335 14.3051 18.0973C14.1924 18.1611 14.0982 18.253 14.0315 18.3641Z" stroke="#F3901D" stroke-width="2" stroke-linecap="round" stroke-linejoin="round"/>
<path d="M7.49988 12.375C8.1212 12.375 8.62488 11.8713 8.62488 11.25C8.62488 10.6287 8.1212 10.125 7.49988 10.125C6.87856 10.125 6.37488 10.6287 6.37488 11.25C6.37488 11.8713 6.87856 12.375 7.49988 12.375Z" fill="#F3901D"/>
<path d="M12 12.375C12.6213 12.375 13.125 11.8713 13.125 11.25C13.125 10.6287 12.6213 10.125 12 10.125C11.3787 10.125 10.875 10.6287 10.875 11.25C10.875 11.8713 11.3787 12.375 12 12.375Z" fill="#F3901D"/>
<path d="M16.5002 12.375C17.1216 12.375 17.6252 11.8713 17.6252 11.25C17.6252 10.6287 17.1216 10.125 16.5002 10.125C15.8789 10.125 15.3752 10.6287 15.3752 11.25C15.3752 11.8713 15.8789 12.375 16.5002 12.375Z" fill="#F3901D"/>
</svg>
